<?xml version="1.0" encoding="UTF-8"?><svg id="Layer_2" xmlns="http://www.w3.org/2000/svg" viewBox="0 0 120.88 120.88"><defs><style>.cls-1{fill:#fff;}.cls-2{fill:#e91d25;}</style></defs><g id="Layer_1-2"><g><circle class="cls-1" cx="60.44" cy="60.44" r="60.44"/><g><g><path class="cls-1" d="M60.44,91.87c17.33,0,31.43-14.1,31.43-31.43s-14.1-31.43-31.43-31.43-31.43,14.1-31.43,31.43,14.1,31.43,31.43,31.43Zm0-48.84c9.62,0,17.41,7.8,17.41,17.41s-7.8,17.41-17.41,17.41-17.41-7.8-17.41-17.41,7.8-17.41,17.41-17.41Z"/><path class="cls-1" d="M60.44,14.01c25.64,0,46.43,20.79,46.43,46.43s-20.79,46.43-46.43,46.43S14.01,86.08,14.01,60.44,34.79,14.01,60.44,14.01Z"/></g><path class="cls-2" d="M60.44,106.87c25.64,0,46.43-20.79,46.43-46.43S86.08,14.01,60.44,14.01,14.01,34.79,14.01,60.44s20.79,46.43,46.43,46.43Zm0-77.87c17.33,0,31.43,14.1,31.43,31.43s-14.1,31.43-31.43,31.43-31.43-14.1-31.43-31.43,14.1-31.43,31.43-31.43Z"/><circle class="cls-2" cx="60.44" cy="60.44" r="17.41" transform="translate(-25.03 60.44) rotate(-45)"/></g></g></g></svg>