<?xml version="1.0" encoding="UTF-8"?><svg id="Layer_2" xmlns="http://www.w3.org/2000/svg" viewBox="0 0 158.42 592"><defs><style>.cls-1{fill:#fff;}.cls-2{fill:#3654a5;}</style></defs><g id="Layer_1-2"><g><g><path class="cls-1" d="M79.21,426.21c17.33,0,31.43-14.1,31.43-31.43s-14.1-31.43-31.43-31.43-31.43,14.1-31.43,31.43,14.1,31.43,31.43,31.43Zm0-48.84c9.62,0,17.41,7.8,17.41,17.41s-7.8,17.41-17.41,17.41-17.41-7.8-17.41-17.41,7.8-17.41,17.41-17.41Z"/><path class="cls-1" d="M15.25,469.38h127.93v-149.22H15.25v149.22Zm63.96-121.04c25.64,0,46.43,20.79,46.43,46.43s-20.79,46.43-46.43,46.43-46.43-20.79-46.43-46.43,20.79-46.43,46.43-46.43Z"/><rect class="cls-1" x="15.25" y="484.63" width="127.93" height="16.1"/><rect class="cls-1" x="15.25" y="288.81" width="127.93" height="16.11"/><path class="cls-1" d="M15.25,529.33c0,16.32,9.13,31.27,23.25,38.07,25.87,12.46,55.55,12.46,81.42,0,14.13-6.81,23.26-21.75,23.26-38.07v-13.34H15.25v13.34Z"/><path class="cls-1" d="M119.57,201.34c0-1.77-1.41-3.23-3.16-3.31h-.38c-1.73,.11-3.11,1.56-3.11,3.31v45.73h6.65v-45.73Z"/><path class="cls-1" d="M134.8,262.57h-37.14v-47.83c-12.11-2.44-24.8-2.44-36.92,0v47.83H23.61v-27.89c-5.37,7.31-8.36,16.33-8.36,25.56v13.32h127.93v-13.32c0-9.24-2.99-18.26-8.36-25.57l-.02,27.89Z"/><path class="cls-1" d="M45.5,201.34c0-1.83-1.49-3.32-3.33-3.32s-3.33,1.49-3.33,3.32v45.73h6.65v-45.73Z"/></g><path class="cls-2" d="M134.82,213.48v-12.14c0-8.75-6.05-16.2-14.53-18.08l-33.45-41.83V7.62c0-4.2-3.42-7.62-7.62-7.62s-7.62,3.42-7.62,7.62V141.43l-33.45,41.83c-8.48,1.88-14.53,9.34-14.53,18.08v12.14C8.8,224.19,0,241.57,0,260.25v269.38H0c.11,22.02,12.6,42.22,31.88,51.51,15.04,7.24,31.19,10.86,47.33,10.86s32.29-3.62,47.32-10.86c19.37-9.33,31.89-29.67,31.89-51.81V260.25c0-18.68-8.8-36.06-23.6-46.77Zm-21.9-12.14c0-1.76,1.38-3.21,3.11-3.31h.38c1.76,.08,3.16,1.54,3.16,3.31v45.73h-6.65v-45.73Zm-33.71-45.03l24.85,31.06c-3.5,3.04-5.73,7.25-6.26,11.84-6.17-1.07-12.38-1.61-18.58-1.61s-12.41,.54-18.58,1.61c-.53-4.59-2.76-8.8-6.26-11.84l24.85-31.06Zm-40.36,45.03c0-1.83,1.49-3.32,3.33-3.32s3.33,1.49,3.33,3.32v45.73h-6.65v-45.73Zm104.33,327.99c0,16.32-9.13,31.26-23.26,38.07-25.87,12.46-55.54,12.46-81.42,0-14.13-6.81-23.25-21.75-23.25-38.07v-13.34h127.93v13.34Zm0-28.59H15.25v-16.1h127.93v16.1Zm0-31.35H15.25v-149.22h127.93v149.22Zm0-164.46H15.25v-16.11h127.93v16.11Zm0-31.35H15.25v-13.32c0-9.24,2.99-18.26,8.35-25.56v27.89H60.74v-47.83c12.12-2.44,24.81-2.44,36.92,0v47.83h37.13l.02-27.89c5.37,7.31,8.36,16.33,8.36,25.57v13.32Z"/><path class="cls-2" d="M79.21,441.21c25.64,0,46.43-20.79,46.43-46.43s-20.79-46.43-46.43-46.43-46.43,20.79-46.43,46.43,20.79,46.43,46.43,46.43Zm0-77.87c17.33,0,31.43,14.1,31.43,31.43s-14.1,31.43-31.43,31.43-31.43-14.1-31.43-31.43,14.1-31.43,31.43-31.43Z"/><circle class="cls-2" cx="79.21" cy="394.78" r="17.41" transform="translate(-255.95 171.64) rotate(-45)"/></g></g></svg>