<?xml version="1.0" encoding="UTF-8"?><svg id="Layer_2" xmlns="http://www.w3.org/2000/svg" viewBox="0 0 196.03 374.87"><defs><style>.cls-1{fill:none;}.cls-2{fill:#007f6f;}.cls-3{fill:#fff;}</style></defs><g id="Layer_1-2"><g><rect class="cls-3" x="15" y="220.51" width="166.03" height="139.36" rx="14.5" ry="14.5"/><g><rect class="cls-1" x="15" y="220.51" width="166.03" height="139.36" rx="14.5" ry="14.5"/><path class="cls-1" d="M98.01,204.69c7.33,0,13.3-5.97,13.3-13.3,0-4.55-2.3-8.58-5.8-10.98v1.7c0,4.14-3.36,7.5-7.5,7.5s-7.5-3.36-7.5-7.5v-1.7c-3.5,2.4-5.8,6.42-5.8,10.98,0,7.33,5.97,13.3,13.3,13.3Z"/><path class="cls-2" d="M166.53,205.51h-43.99c2.4-4.16,3.78-8.98,3.78-14.13,0-13.03-8.81-24-20.8-27.29V7.5c0-4.14-3.36-7.5-7.5-7.5s-7.5,3.36-7.5,7.5V164.1c-11.99,3.29-20.8,14.26-20.8,27.29,0,5.15,1.38,9.97,3.78,14.13H29.5c-16.27,0-29.5,13.23-29.5,29.5v110.36c0,16.27,13.23,29.5,29.5,29.5H166.53c16.27,0,29.5-13.23,29.5-29.5v-110.36c0-16.27-13.23-29.5-29.5-29.5Zm-76.01-25.1v1.7c0,4.14,3.36,7.5,7.5,7.5s7.5-3.36,7.5-7.5v-1.7c3.5,2.4,5.8,6.42,5.8,10.98,0,7.33-5.97,13.3-13.3,13.3s-13.3-5.97-13.3-13.3c0-4.55,2.3-8.58,5.8-10.98Zm90.51,164.96c0,8-6.5,14.5-14.5,14.5H29.5c-8,0-14.5-6.5-14.5-14.5v-110.36c0-8,6.5-14.5,14.5-14.5H166.53c8,0,14.5,6.5,14.5,14.5v110.36Z"/></g><path class="cls-2" d="M149.51,265.75l-27.06-27.06c-1.41-1.41-3.31-2.2-5.3-2.2h-38.27c-1.99,0-3.9,.79-5.3,2.2l-27.06,27.06c-1.41,1.41-2.2,3.31-2.2,5.3v38.27c0,1.99,.79,3.9,2.2,5.3l27.06,27.06c1.41,1.41,3.31,2.2,5.3,2.2h38.27c1.99,0,3.9-.79,5.3-2.2l27.06-27.06c1.41-1.41,2.2-3.31,2.2-5.3v-38.27c0-1.99-.79-3.9-2.2-5.3Z"/><path class="cls-3" d="M108.62,290.19l12.04-12.05c2.93-2.93,2.93-7.68,0-10.61-2.93-2.93-7.68-2.93-10.61,0l-12.04,12.04-12.04-12.04c-2.93-2.93-7.68-2.93-10.61,0-2.93,2.93-2.93,7.68,0,10.61l12.04,12.05-12.04,12.05c-2.93,2.93-2.93,7.68,0,10.61,1.46,1.46,3.38,2.2,5.3,2.2s3.84-.73,5.3-2.2l12.04-12.04,12.04,12.04c1.46,1.46,3.38,2.2,5.3,2.2s3.84-.73,5.3-2.2c2.93-2.93,2.93-7.68,0-10.61l-12.04-12.05Z"/></g></g></svg>