<?xml version="1.0" encoding="UTF-8"?><svg id="Layer_2" xmlns="http://www.w3.org/2000/svg" viewBox="0 0 196.03 430.74"><defs><style>.cls-1{fill:none;}.cls-2{fill:#007f6f;}.cls-3{fill:#fff;}</style></defs><g id="Layer_1-2"><g><rect class="cls-3" x="15" y="44.54" width="166.03" height="139.36" rx="14.5" ry="14.5"/><g><path class="cls-1" d="M166.53,44.54H29.5c-8,0-14.5,6.5-14.5,14.5v110.36c0,8,6.5,14.5,14.5,14.5H166.53c8,0,14.5-6.5,14.5-14.5V59.04c0-8-6.5-14.5-14.5-14.5Z"/><path class="cls-2" d="M166.53,29.54h-61.01V7.5c0-4.14-3.36-7.5-7.5-7.5s-7.5,3.36-7.5,7.5V29.54H29.5C13.23,29.54,0,42.77,0,59.04v110.36c0,16.27,13.23,29.5,29.5,29.5h61.01v224.35c0,4.14,3.36,7.5,7.5,7.5s7.5-3.36,7.5-7.5V198.9h61.01c16.27,0,29.5-13.23,29.5-29.5V59.04c0-16.27-13.23-29.5-29.5-29.5Zm14.5,139.86c0,8-6.5,14.5-14.5,14.5H29.5c-8,0-14.5-6.5-14.5-14.5V59.04c0-8,6.5-14.5,14.5-14.5H166.53c8,0,14.5,6.5,14.5,14.5v110.36Z"/></g><path class="cls-2" d="M149.51,89.78l-27.06-27.06c-1.41-1.41-3.31-2.2-5.3-2.2h-38.27c-1.99,0-3.9,.79-5.3,2.2l-27.06,27.06c-1.41,1.41-2.2,3.31-2.2,5.3v38.27c0,1.99,.79,3.9,2.2,5.3l27.06,27.06c1.41,1.41,3.31,2.2,5.3,2.2h38.27c1.99,0,3.9-.79,5.3-2.2l27.06-27.06c1.41-1.41,2.2-3.31,2.2-5.3v-38.27c0-1.99-.79-3.9-2.2-5.3Z"/><path class="cls-3" d="M108.62,114.22l12.04-12.05c2.93-2.93,2.93-7.68,0-10.61-2.93-2.93-7.68-2.93-10.61,0l-12.04,12.04-12.04-12.04c-2.93-2.93-7.68-2.93-10.61,0-2.93,2.93-2.93,7.68,0,10.61l12.04,12.05-12.04,12.05c-2.93,2.93-2.93,7.68,0,10.61,1.46,1.46,3.38,2.2,5.3,2.2s3.84-.73,5.3-2.2l12.04-12.04,12.04,12.04c1.46,1.46,3.38,2.2,5.3,2.2s3.84-.73,5.3-2.2c2.93-2.93,2.93-7.68,0-10.61l-12.04-12.05Z"/></g></g></svg>