<?xml version="1.0" encoding="UTF-8"?><svg id="Layer_2" xmlns="http://www.w3.org/2000/svg" viewBox="0 0 138.7 411.97"><defs><style>.cls-1{fill:#fff;}.cls-2{fill:#3654a5;}</style></defs><g id="Layer_1-2"><g><g><path class="cls-1" d="M92.53,221.22H46.12c6.58,42.42-7.24,71.56-20.16,88.64-7.52,9.95-11.4,22.34-10.93,34.88,.49,13.01,6.59,26.21,16.74,36.2,10.49,10.34,23.85,16.03,37.61,16.03,29.95,0,54.31-24.38,54.31-54.35,0-11.29-3.42-22.12-9.9-31.3-24.53-34.79-24.16-70.45-21.27-90.1Zm-23.18,167.46c-25.64,0-46.43-20.79-46.43-46.43s20.79-46.43,46.43-46.43,46.43,20.79,46.43,46.43-20.79,46.43-46.43,46.43Z"/><path class="cls-1" d="M69.35,310.81c-17.33,0-31.43,14.1-31.43,31.43s14.1,31.43,31.43,31.43,31.43-14.1,31.43-31.43-14.1-31.43-31.43-31.43Zm0,48.84c-9.62,0-17.41-7.8-17.41-17.41s7.8-17.41,17.41-17.41,17.41,7.8,17.41,17.41-7.8,17.41-17.41,17.41Z"/></g><g><path class="cls-2" d="M69.35,295.81c-25.64,0-46.43,20.79-46.43,46.43s20.79,46.43,46.43,46.43,46.43-20.79,46.43-46.43-20.79-46.43-46.43-46.43Zm0,77.87c-17.33,0-31.43-14.1-31.43-31.43s14.1-31.43,31.43-31.43,31.43,14.1,31.43,31.43-14.1,31.43-31.43,31.43Z"/><circle class="cls-2" cx="69.35" cy="342.25" r="17.41" transform="translate(-76.78 25.09) rotate(-13.28)"/><path class="cls-2" d="M107.72,221.16c3.91-.24,7.02-3.49,7.02-7.47s-3.35-7.48-7.48-7.48h-13.82c2.66-4.31,4.2-9.39,4.2-14.83,0-13.03-8.81-24-20.8-27.29V7.5c0-4.14-3.36-7.5-7.5-7.5s-7.5,3.36-7.5,7.5V164.1c-11.99,3.29-20.8,14.26-20.8,27.29,0,5.44,1.54,10.52,4.2,14.83h-13.82c-4.12,0-7.48,3.35-7.48,7.48s3.08,7.19,6.96,7.46c6.65,38.48-5.46,64.51-16.91,79.65h0C4.4,313.52-.56,329.32,.05,345.31c.64,16.79,8.36,33.67,21.2,46.32,13.32,13.12,30.41,20.34,48.14,20.34,38.22,0,69.31-31.11,69.31-69.35,0-14.41-4.37-28.22-12.64-39.94-22.85-32.4-20.97-65.94-18.33-81.51Zm-45.87-40.75v1.7c0,4.14,3.36,7.5,7.5,7.5s7.5-3.36,7.5-7.5v-1.7c3.5,2.4,5.8,6.42,5.8,10.98,0,7.33-5.97,13.3-13.3,13.3s-13.3-5.97-13.3-13.3c0-4.55,2.3-8.58,5.8-10.98Zm7.54,216.56c-13.76,0-27.12-5.69-37.61-16.03-10.15-9.99-16.25-23.19-16.74-36.2-.48-12.54,3.4-24.93,10.93-34.88,12.92-17.08,26.74-46.22,20.16-88.64h46.41c-2.89,19.66-3.26,55.31,21.27,90.1,6.48,9.18,9.9,20,9.9,31.3,0,29.97-24.36,54.35-54.31,54.35Z"/></g></g></g></svg>
