<?xml version="1.0" encoding="UTF-8"?><svg id="Layer_2" xmlns="http://www.w3.org/2000/svg" viewBox="0 0 170.18 170.18"><defs><style>.cls-1{fill:none;}.cls-2{fill:#fff;}.cls-3{fill:#22205f;}</style></defs><g id="Layer_1-2"><g><path class="cls-3" d="M166.7,46.36L123.82,3.48c-2.23-2.23-5.25-3.48-8.4-3.48H54.77c-3.15,0-6.17,1.25-8.4,3.48L3.48,46.36c-2.23,2.23-3.48,5.25-3.48,8.4v60.64c0,3.15,1.25,6.18,3.48,8.4l42.88,42.88c2.23,2.23,5.25,3.48,8.4,3.48h60.65c3.15,0,6.17-1.25,8.4-3.48l42.88-42.88c2.23-2.23,3.48-5.25,3.48-8.4V54.77c0-3.15-1.25-6.18-3.48-8.4Z"/><g><path class="cls-2" d="M96.11,64.06l12.04-12.05c2.93-2.93,2.93-7.68,0-10.61-2.93-2.93-7.68-2.93-10.61,0l-12.04,12.04-12.04-12.04c-2.93-2.93-7.68-2.93-10.61,0-2.93,2.93-2.93,7.68,0,10.61l12.04,12.05-12.04,12.05c-2.93,2.93-2.93,7.68,0,10.61,1.46,1.46,3.38,2.2,5.3,2.2s3.84-.73,5.3-2.2l12.04-12.04,12.04,12.04c1.46,1.46,3.38,2.2,5.3,2.2s3.84-.73,5.3-2.2c2.93-2.93,2.93-7.68,0-10.61l-12.04-12.05Z"/><g><path class="cls-1" d="M73.33,112.74c-.74-.51-1.64-.77-2.72-.77s-1.98,.26-2.72,.77c-.74,.51-1.29,1.26-1.67,2.25-.38,.99-.57,2.2-.57,3.63s.19,2.64,.57,3.63,.94,1.73,1.67,2.25c.74,.51,1.64,.77,2.72,.77s1.98-.25,2.72-.77c.74-.51,1.29-1.26,1.67-2.25s.57-2.2,.57-3.63-.19-2.64-.57-3.63c-.38-.99-.94-1.73-1.67-2.25Z"/><path class="cls-1" d="M96.01,112.22c-.54-.26-1.19-.39-1.96-.39h-2.29v6.6h2.29c.76,0,1.42-.13,1.96-.4,.54-.27,.96-.65,1.25-1.15,.29-.5,.44-1.09,.44-1.77s-.15-1.27-.44-1.76c-.29-.49-.71-.86-1.25-1.12Z"/><polygon class="cls-2" points="49.47 119.18 49.28 119.18 40.77 106.64 35.25 106.64 35.25 130.59 41.75 130.59 41.75 118.01 41.89 118.01 50.54 130.59 55.97 130.59 55.97 106.64 49.47 106.64 49.47 119.18"/><path class="cls-2" d="M76.51,107.72c-1.76-.94-3.73-1.41-5.89-1.41s-4.15,.47-5.91,1.41c-1.76,.94-3.15,2.32-4.19,4.15-1.03,1.83-1.55,4.08-1.55,6.74s.52,4.89,1.55,6.72c1.03,1.83,2.43,3.22,4.19,4.16,1.76,.95,3.73,1.42,5.91,1.42s4.13-.47,5.89-1.41c1.76-.94,3.16-2.32,4.2-4.15,1.04-1.83,1.55-4.08,1.55-6.74s-.52-4.91-1.55-6.74c-1.04-1.83-2.44-3.21-4.2-4.15Zm-1.5,14.53c-.38,.99-.94,1.73-1.67,2.25-.74,.51-1.64,.77-2.72,.77s-1.98-.25-2.72-.77c-.74-.51-1.29-1.26-1.67-2.25s-.57-2.2-.57-3.63,.19-2.64,.57-3.63c.38-.99,.94-1.73,1.67-2.25,.74-.51,1.64-.77,2.72-.77s1.98,.26,2.72,.77c.74,.51,1.29,1.26,1.67,2.25,.38,.99,.57,2.2,.57,3.63s-.19,2.64-.57,3.63Z"/><path class="cls-2" d="M100.26,107.69c-1.33-.7-2.89-1.05-4.67-1.05h-10.34v23.95h6.5v-7.11h3.6c1.82,0,3.42-.34,4.79-1.02,1.37-.68,2.43-1.64,3.19-2.9,.76-1.26,1.14-2.74,1.14-4.46s-.37-3.19-1.11-4.46c-.74-1.27-1.78-2.26-3.11-2.96Zm-3,9.18c-.29,.5-.71,.88-1.25,1.15-.54,.27-1.19,.4-1.96,.4h-2.29v-6.6h2.29c.76,0,1.42,.13,1.96,.39,.54,.26,.96,.64,1.25,1.12,.29,.49,.44,1.07,.44,1.76s-.15,1.27-.44,1.77Z"/><polygon class="cls-2" points="106.87 130.59 124.08 130.59 124.08 125.35 113.37 125.35 113.37 121.23 123.24 121.23 123.24 115.99 113.37 115.99 113.37 111.88 124.13 111.88 124.13 106.64 106.87 106.64 106.87 130.59"/><path class="cls-2" d="M131.66,124.46c-.9,0-1.68,.32-2.32,.95-.64,.63-.96,1.39-.95,2.28,0,.91,.31,1.69,.95,2.32s1.42,.95,2.32,.95c.58,0,1.11-.15,1.6-.44,.49-.29,.89-.69,1.2-1.18,.31-.49,.47-1.05,.47-1.65,0-.89-.34-1.65-1-2.28-.66-.63-1.42-.95-2.27-.95Z"/><polygon class="cls-2" points="134.32 123.11 134.93 106.64 128.38 106.64 128.99 123.11 134.32 123.11"/></g></g></g></g></svg>