<svg width="200" height="200" viewBox="0 0 200 200" fill="none" xmlns="http://www.w3.org/2000/svg">
<path d="M100 0C44.7581 0 0 44.7581 0 100C0 155.242 44.7581 200 100 200C155.242 200 200 155.242 200 100C200 44.7581 155.242 0 100 0ZM113.629 76.4919L145.887 57.1371C150.565 54.3548 155.565 60.2419 152.097 64.3952L138.548 80.6452L152.097 96.8952C155.605 101.089 150.524 106.895 145.887 104.153L113.629 84.7984C110.524 82.9032 110.524 78.3871 113.629 76.4919ZM47.9032 64.3952C44.4355 60.2419 49.4355 54.3548 54.1129 57.1371L86.371 76.4919C89.5161 78.3871 89.5161 82.9032 86.371 84.7984L54.1129 104.153C49.4758 106.895 44.4355 101.089 47.9032 96.8952L61.4516 80.6452L47.9032 64.3952ZM100 112.903C120.927 112.903 146.492 130.565 149.677 155.927C150.363 161.411 146.452 165.847 142.54 164.153C132.097 159.677 116.573 157.137 100 157.137C83.4274 157.137 67.9032 159.677 57.4597 164.153C53.5081 165.847 49.6371 161.331 50.3226 155.927C53.5081 130.565 79.0726 112.903 100 112.903Z" fill="white"/>
</svg>
