<svg width="200" height="200" viewBox="0 0 200 200" fill="none" xmlns="http://www.w3.org/2000/svg">
<path d="M100 0C44.7581 0 0 44.7581 0 100C0 155.242 44.7581 200 100 200C155.242 200 200 155.242 200 100C200 44.7581 155.242 0 100 0ZM45.1613 86.8548C46.4919 69.879 58.1452 58.0645 67.7419 58.0645C77.3387 58.0645 88.9919 69.879 90.3226 86.8548C90.6048 90.3226 85.9677 91.6532 84.3145 88.6693L80.4839 81.8145C77.379 76.2903 72.7419 73.1048 67.7823 73.1048C62.8226 73.1048 58.1855 76.2903 55.0806 81.8145L51.25 88.6693C49.5161 91.6532 44.879 90.2823 45.1613 86.8548ZM146.29 136.371C134.798 150.161 117.944 158.065 100 158.065C82.0564 158.065 65.2016 150.161 53.7097 136.371C48.2661 129.798 58.1452 121.573 63.629 128.105C72.6613 138.952 85.8871 145.121 100 145.121C114.113 145.121 127.339 138.911 136.371 128.105C141.855 121.573 151.734 129.839 146.29 136.371ZM148.79 88.6693L144.96 81.8145C141.855 76.2903 137.218 73.1048 132.258 73.1048C127.298 73.1048 122.661 76.2903 119.556 81.8145L115.726 88.6693C114.073 91.6129 109.435 90.2823 109.718 86.8548C111.048 69.879 122.702 58.0645 132.298 58.0645C141.895 58.0645 153.548 69.879 154.879 86.8548C155.121 90.3226 150.444 91.6532 148.79 88.6693Z" fill="white"/>
</svg>
