<svg width="200" height="200" viewBox="0 0 200 200" fill="none" xmlns="http://www.w3.org/2000/svg">
<path d="M100 0C44.7581 0 0 44.7581 0 100C0 155.242 44.7581 200 100 200C155.242 200 200 155.242 200 100C200 44.7581 155.242 0 100 0ZM132.258 67.7419C139.395 67.7419 145.161 73.5081 145.161 80.6452C145.161 87.7823 139.395 93.5484 132.258 93.5484C125.121 93.5484 119.355 87.7823 119.355 80.6452C119.355 73.5081 125.121 67.7419 132.258 67.7419ZM67.7419 67.7419C74.879 67.7419 80.6452 73.5081 80.6452 80.6452C80.6452 87.7823 74.879 93.5484 67.7419 93.5484C60.6048 93.5484 54.8387 87.7823 54.8387 80.6452C54.8387 73.5081 60.6048 67.7419 67.7419 67.7419ZM146.29 136.371C134.798 150.161 117.944 158.065 100 158.065C82.0564 158.065 65.2016 150.161 53.7097 136.371C48.2258 129.798 58.1452 121.573 63.629 128.105C72.6613 138.952 85.8871 145.121 100 145.121C114.113 145.121 127.339 138.911 136.371 128.105C141.774 121.573 151.734 129.798 146.29 136.371Z" fill="white"/>
</svg>
