<svg width="200" height="200" viewBox="0 0 200 200" fill="none" xmlns="http://www.w3.org/2000/svg">
<path d="M100 0C44.7581 0 0 44.7581 0 100C0 155.242 44.7581 200 100 200C155.242 200 200 155.242 200 100C200 44.7581 155.242 0 100 0ZM54.8387 93.5484C54.8387 89.7984 56.4919 86.4919 59.0726 84.1129L46.5726 80.3629C43.1452 79.3548 41.2097 75.7258 42.2581 72.3387C43.2661 68.9113 46.8548 67.0161 50.2823 68.0242L82.5403 77.7016C85.9677 78.7097 87.9032 82.3387 86.8548 85.7258C86.0081 88.5081 83.4677 90.3226 80.6855 90.3226C80.4839 90.3226 80.2419 90.2419 80 90.2419C80.2823 91.3307 80.6855 92.379 80.6855 93.5484C80.6855 100.685 74.9194 106.452 67.7823 106.452C60.6452 106.452 54.8387 100.685 54.8387 93.5484ZM122.581 155.726C111.371 142.258 88.629 142.258 77.379 155.726C71.9355 162.298 61.9758 154.032 67.4597 147.46C75.5242 137.782 87.379 132.218 99.9597 132.218C112.54 132.218 124.395 137.782 132.46 147.46C138.024 154.113 127.984 162.218 122.581 155.726ZM153.468 80.3629L140.968 84.1129C143.508 86.4516 145.202 89.7984 145.202 93.5484C145.202 100.685 139.435 106.452 132.298 106.452C125.161 106.452 119.395 100.685 119.395 93.5484C119.395 92.379 119.758 91.2903 120.081 90.2419C119.839 90.2823 119.637 90.3226 119.395 90.3226C116.613 90.3226 114.073 88.5081 113.226 85.7258C112.218 82.2984 114.153 78.7097 117.54 77.7016L149.798 68.0242C153.185 67.0161 156.815 68.9516 157.823 72.3387C158.831 75.7661 156.895 79.3548 153.468 80.3629Z" fill="white"/>
</svg>
