<svg width="200" height="200" viewBox="0 0 200 200" fill="none" xmlns="http://www.w3.org/2000/svg">
<path d="M100 0C44.7581 0 0 44.7581 0 100C0 155.242 44.7581 200 100 200C155.242 200 200 155.242 200 100C200 44.7581 155.242 0 100 0ZM67.7419 67.7419C74.879 67.7419 80.6452 73.5081 80.6452 80.6452C80.6452 87.7823 74.879 93.5484 67.7419 93.5484C60.6048 93.5484 54.8387 87.7823 54.8387 80.6452C54.8387 73.5081 60.6048 67.7419 67.7419 67.7419ZM138.71 145.161H61.2903C52.7419 145.161 52.7419 132.258 61.2903 132.258H138.71C147.258 132.258 147.258 145.161 138.71 145.161ZM132.258 93.5484C125.121 93.5484 119.355 87.7823 119.355 80.6452C119.355 73.5081 125.121 67.7419 132.258 67.7419C139.395 67.7419 145.161 73.5081 145.161 80.6452C145.161 87.7823 139.395 93.5484 132.258 93.5484Z" fill="white"/>
</svg>
